<?xml version="1.0" standalone="no"?>
<!DOCTYPE svg PUBLIC "-//W3C//DTD SVG 20010904//EN"
 "http://www.w3.org/TR/2001/REC-SVG-20010904/DTD/svg10.dtd">
<svg version="1.0" xmlns="http://www.w3.org/2000/svg"
 width="2165.000000pt" height="1096.000000pt" viewBox="0 0 2165.000000 1096.000000"
 preserveAspectRatio="xMidYMid meet">

<g transform="translate(0.000000,1096.000000) scale(0.100000,-0.100000)"
fill="#000000" stroke="none">
<path d="M2283 10941 c-126 -34 -266 -112 -342 -192 -55 -55 -54 -82 2 -110
96 -49 245 -191 234 -223 -8 -21 -73 -9 -158 29 -226 101 -304 123 -454 132
-173 9 -342 -31 -489 -119 -88 -52 -204 -162 -261 -248 -66 -99 -126 -230
-128 -278 -2 -62 20 -79 121 -91 133 -17 284 -90 426 -207 121 -100 156 -187
95 -238 -17 -14 -37 -26 -45 -26 -7 0 -25 21 -38 48 -29 58 -130 156 -211 204
-442 267 -1005 -46 -1032 -573 -7 -133 12 -226 69 -342 58 -116 180 -237 298
-296 123 -59 182 -65 453 -45 l219 16 387 -385 c408 -406 457 -447 536 -447
49 0 126 42 191 105 70 67 69 68 -196 390 -257 311 -295 368 -260 390 19 12
85 -30 159 -100 58 -55 297 -323 447 -503 15 -19 27 -24 45 -19 18 5 222 133
282 178 14 10 -15 57 -171 288 -138 205 -202 316 -202 353 0 20 44 53 58 44 6
-3 47 -59 92 -123 156 -222 333 -453 347 -453 15 0 178 99 256 156 l48 35 -50
93 c-28 52 -98 174 -157 272 -137 231 -197 349 -198 394 -1 33 1 35 35 38 52
4 85 -28 149 -145 146 -268 324 -553 345 -553 19 0 118 76 288 221 5 4 -115
259 -267 568 -152 308 -276 565 -276 571 0 6 24 43 53 83 76 103 92 133 121
218 49 146 44 299 -14 460 -72 198 -225 344 -435 415 -109 37 -267 43 -372 15z"/>
<path d="M4570 8414 c-19 -2 -84 -9 -145 -15 -498 -50 -963 -227 -1343 -511
-133 -100 -379 -348 -484 -488 -481 -642 -683 -1530 -562 -2475 169 -1323 952
-2182 2164 -2374 418 -67 880 -54 1280 35 1329 296 2143 1480 2097 3049 -20
663 -202 1274 -512 1715 -219 311 -505 566 -835 744 -271 145 -645 258 -1005
302 -122 14 -575 27 -655 18z m475 -1029 c314 -51 581 -197 783 -428 233 -268
386 -654 444 -1127 19 -158 16 -594 -5 -750 -122 -873 -544 -1412 -1202 -1536
-147 -28 -420 -26 -571 4 -570 113 -960 527 -1123 1193 -62 256 -75 379 -75
744 -1 358 6 443 54 686 149 743 575 1164 1247 1229 114 11 333 4 448 -15z"/>
<path d="M16360 8403 c-115 -19 -246 -89 -335 -178 -196 -195 -239 -488 -110
-734 158 -300 529 -417 838 -264 102 51 221 171 270 273 49 101 67 177 67 285
0 50 -7 118 -15 150 -57 223 -243 407 -465 459 -60 15 -191 19 -250 9z"/>
<path d="M18535 8395 c-220 -56 -404 -240 -460 -460 -8 -32 -15 -100 -15 -150
0 -177 57 -314 184 -441 135 -135 283 -191 475 -182 276 14 501 201 571 474
64 250 -42 525 -258 667 -105 70 -196 98 -327 103 -76 3 -128 -1 -170 -11z"/>
<path d="M10508 6905 c-42 -7 -107 -23 -145 -35 -145 -48 -370 -178 -489 -284
-69 -61 -162 -199 -254 -379 l-78 -149 -7 396 -7 396 -707 -2 -706 -3 -3
-2167 -2 -2168 710 0 710 0 0 963 c1 1306 12 1669 61 1876 25 109 59 171 139
252 109 111 182 137 406 146 120 5 166 2 225 -11 137 -30 235 -107 302 -234
47 -88 64 -157 77 -307 11 -137 27 -968 36 -1977 l6 -688 654 0 653 0 5 43 c3
23 8 281 11 572 10 907 25 1723 35 1900 21 342 50 440 167 551 124 118 246
164 438 164 184 0 285 -35 394 -135 152 -141 160 -226 181 -1755 5 -393 12
-856 16 -1027 l6 -313 700 0 700 0 -5 1488 c-3 943 -9 1535 -16 1617 -30 359
-74 498 -226 710 -92 129 -173 214 -273 290 -159 120 -360 208 -585 257 -88
19 -132 22 -317 22 -185 0 -229 -3 -316 -22 -201 -44 -383 -118 -504 -208 -89
-65 -264 -242 -336 -339 -60 -83 -71 -101 -123 -217 -16 -38 -36 -68 -44 -68
-14 0 -96 137 -162 270 -163 327 -468 531 -865 580 -113 14 -367 11 -462 -5z"/>
<path d="M17450 6914 c-681 -45 -1199 -322 -1552 -829 -142 -205 -276 -524
-331 -790 -47 -225 -52 -286 -52 -590 0 -225 5 -317 18 -410 136 -913 619
-1500 1401 -1700 216 -55 338 -69 611 -69 259 0 374 12 574 60 848 207 1391
866 1513 1834 20 158 17 575 -5 725 -61 413 -199 769 -404 1038 -61 81 -222
246 -298 307 -273 217 -614 354 -1005 404 -120 15 -376 26 -470 20z m257 -765
c560 -62 909 -503 974 -1229 14 -157 7 -386 -16 -539 -99 -646 -473 -1063
-985 -1100 -665 -47 -1093 358 -1202 1139 -19 141 -16 534 6 684 44 302 134
533 276 709 204 254 558 380 947 336z"/>
</g>
</svg>
