<?xml version="1.0" encoding="UTF-8"?>
<svg id="_レイヤー_1" data-name="レイヤー 1" xmlns="http://www.w3.org/2000/svg" version="1.1" viewBox="0 0 491.5 222.8">
  <defs>
    <style>
      .cls-1 {
        fill: #000;
        stroke-width: 0px;
      }
    </style>
  </defs>
  <path class="cls-1" d="M61.9,11.5c-4.8,2.3-7.7,5.3-5.7,6,2.3.7,6.7,5,6,5.7s-2.9-.3-5.5-1.6c-10.2-5-21.7-2.1-27.4,6.8-3.5,5.7-3.8,8.3-.6,8.3,5.9.1,16.2,7.9,13.7,10.4s-1.8.2-3.7-1.8c-6.9-7.5-18.1-7.3-24.6.3-6.9,8.3-4.9,20.2,4.3,25.3,2.8,1.6,4.8,1.8,10,1.4l6.5-.5,10.6,10.6c11.3,11.2,10.9,11,16.3,6.9,1.7-1.4,1.4-1.9-4.8-9.3-3.6-4.3-6.6-8.1-6.6-8.6,0-2.5,3.7.3,9.1,6.8,3.4,4.1,6.4,7.5,6.6,7.5.4,0,4.7-2.8,7.2-4.6.2-.2-2-3.5-4.8-7.5-3.5-5.1-4.8-7.6-4.1-8.3s1.3-.8,1.8,0c3.5,5.2,9.6,13.4,9.9,13.4s4.6-2.7,7.2-4.6c.1-.2-2-4.1-4.8-8.7-5.3-8.8-6-10.7-3.8-10.7s3.4,3.9,6.2,8.5c2.7,4.7,5.2,8.5,5.5,8.5s2-1.2,3.8-2.8l3.3-2.7-6.7-13.6-6.7-13.6,2.2-3c5.2-6.9,3.3-17.8-3.9-22.8-5.1-3.6-11.2-4.2-16.5-1.7Z"/>
  <path class="cls-1" d="M260,107.8c-4,.9-11.2,5.1-14,8.2-1.2,1.2-3.3,4.5-4.7,7.3l-2.5,5v-9.8c-.1,0-.1-9.7-.1-9.7h-34v104h34v-32.1c0-34.8.4-38,5.1-42.5,2.3-2.2,4.1-2.9,8.7-3.2,7.3-.5,11.2,1.3,13.8,6.5,1.7,3.5,1.9,6.9,2.2,37.6l.3,33.2h15.7s15.7,0,15.7,0l.5-34c.5-36.5.5-36.2,6.1-40.9,4.1-3.5,13.2-3.7,17.3-.5,5,4,5.1,4.2,5.6,40.9l.5,34.5h33.5v-38.9c0-44.3-.1-44.9-7.1-54.3-9-12.1-28.9-15.8-43.9-8.2-4.4,2.2-11.8,10-13.2,14-.5,1.6-1.3,2.9-1.6,2.9s-2-2.8-3.6-6.1c-3.3-6.7-7-10.1-14.6-13-5.2-1.9-13.7-2.4-19.7-.9Z"/>
  <g>
    <circle class="cls-1" cx="458.4" cy="86.2" r="15"/>
    <circle class="cls-1" cx="405.2" cy="86.2" r="15"/>
  </g>
  <path class="cls-1" d="M191.8,141.4c0,38.4-23,71.4-67.8,71.4s-65.9-31.4-65.9-70.9,24-70.9,66.9-70.9,66.9,28.3,66.9,70.5ZM88.8,141.3c0,26.9,11.8,47.3,36.3,47.3s35.9-22.2,35.9-46.8-10.7-46.6-36.4-46.6-35.8,19.2-35.8,46.1Z"/>
  <path class="cls-1" d="M481.5,159.5c0,28.5-17.1,53-50.4,53s-48.9-23.4-48.9-52.7,17.9-52.7,49.7-52.7,49.7,21,49.7,52.3ZM405,159.4c0,20,8.8,35.1,26.9,35.1s26.7-16.5,26.7-34.7-7.9-34.6-27-34.6-26.6,14.3-26.6,34.2Z"/>
</svg>